<svg width="46" height="46" viewBox="0 0 46 46" fill="none" xmlns="http://www.w3.org/2000/svg">
<path d="M31.6253 13.4168V14.7585C32.3663 14.7585 32.967 14.1578 32.967 13.4168H31.6253ZM31.6253 5.75012H32.967C32.967 5.00914 32.3663 4.40846 31.6253 4.40846V5.75012ZM18.2087 21.0835V22.4251C18.9496 22.4251 19.5503 21.8244 19.5503 21.0835H18.2087ZM12.459 21.0835V19.7418C11.718 19.7418 11.1173 20.3425 11.1173 21.0835H12.459ZM12.459 28.7501H11.1173C11.1173 29.4911 11.718 30.0918 12.459 30.0918V28.7501ZM18.2087 28.7501H19.5503C19.5503 28.0091 18.9496 27.4085 18.2087 27.4085V28.7501ZM18.2087 40.2501H16.867C16.867 40.9911 17.4677 41.5918 18.2087 41.5918V40.2501ZM25.8753 40.2501V41.5918C26.6163 41.5918 27.217 40.9911 27.217 40.2501H25.8753ZM25.8753 28.7501V27.4085C25.1343 27.4085 24.5337 28.0091 24.5337 28.7501H25.8753ZM30.6673 28.7501V30.0918C31.283 30.0918 31.8196 29.6728 31.9689 29.0755L30.6673 28.7501ZM32.584 21.0835L33.8856 21.4089C33.9858 21.008 33.8957 20.5834 33.6415 20.2578C33.3872 19.9321 32.9971 19.7418 32.584 19.7418V21.0835ZM25.8753 21.0835H24.5337C24.5337 21.8244 25.1343 22.4251 25.8753 22.4251V21.0835ZM26.8337 12.0751C25.5634 12.0751 24.5337 13.1049 24.5337 14.3751H27.217C27.217 14.5868 27.0454 14.7585 26.8337 14.7585V12.0751ZM31.6253 12.0751H26.8337V14.7585H31.6253V12.0751ZM30.2837 5.75012V13.4168H32.967V5.75012H30.2837ZM26.8337 7.09179H31.6253V4.40846H26.8337V7.09179ZM19.5503 14.3751C19.5503 10.3526 22.8112 7.09179 26.8337 7.09179V4.40846C21.3292 4.40846 16.867 8.87068 16.867 14.3751H19.5503ZM19.5503 21.0835V14.3751H16.867V21.0835H19.5503ZM12.459 22.4251H18.2087V19.7418H12.459V22.4251ZM13.8007 28.7501V21.0835H11.1173V28.7501H13.8007ZM18.2087 27.4085H12.459V30.0918H18.2087V27.4085ZM19.5503 40.2501V28.7501H16.867V40.2501H19.5503ZM25.8753 38.9085H18.2087V41.5918H25.8753V38.9085ZM24.5337 28.7501V40.2501H27.217V28.7501H24.5337ZM30.6673 27.4085H25.8753V30.0918H30.6673V27.4085ZM31.2824 20.7581L29.3657 28.4247L31.9689 29.0755L33.8856 21.4089L31.2824 20.7581ZM25.8753 22.4251H32.584V19.7418H25.8753V22.4251ZM24.5337 14.3751V21.0835H27.217V14.3751H24.5337Z" fill="white" fill-opacity="0.92"/>
</svg>
